<svg id="Layer_1" data-name="Layer 1" xmlns="http://www.w3.org/2000/svg" viewBox="0 0 178.76 54.6"><defs><style>.cls-1{fill:#fff;stroke:#d3d3d3;stroke-miterlimit:10;stroke-width:1.5px;}</style></defs><title>extreme-spacing-issues</title><path class="cls-1" d="M171.37,34.23s2.1-2.44,4.07-2a2.62,2.62,0,0,1,1.56.88,5.55,5.55,0,0,1,.8,3c.41,5.21.11,7.17,0,7.82-.34,2-.66,2.32-.79,2.44-.42.4-1.59,0-3.93,0-1.57,0-1.18-2.93-1.18-3.91S170.44,35.21,171.37,34.23Z"/><path class="cls-1" d="M159.67,34.23a2,2,0,0,1,1.47-.49c2.93,0,4.39.49,5.86,0s2.44-2,2.93,1.95c.23,1.8.66,3.57.94,5.36.22,1.35.6,3.18,0,4.47s-3,1.72-4.34,1.92a13.46,13.46,0,0,1-7-.84,1.1,1.1,0,0,1-.25-.17c-1.07-.87-.44-2.86-.2-5.16C159.5,37.13,158.33,35.28,159.67,34.23Z"/><path class="cls-1" d="M90.7,31.31c-1.49,1.19-1.66,7.22-1.64,9.1,0,3.21.76,6.5,2.6,8.85,2.34,3,6.62,4.16,8.57,1.63.86-1.12,1-3,1.37-6.86.45-5.34.68-8,0-10.17-1.35-4.24-7.24-3.15-10-2.84a1.75,1.75,0,0,0-.85.25Z"/><path class="cls-1" d="M104.18,30.59s.7,17.12,3.38,19.77,3.91,3,5.88,2.79S119.67,52,120,47.51s-1.28-15.09-1.1-17.08a14.81,14.81,0,0,0-.49-4.37l-13.24,2.46Z"/><path class="cls-1" d="M149.09,44.44s-.11,3.44,1.46,3.67,4,1.58,5-1.24a36.49,36.49,0,0,0,1.57-10.63c0-3.94.12-4.42.12-4.42l-2.12-3.77L151.48,31A23.89,23.89,0,0,0,149.09,44.44Z"/><path class="cls-1" d="M141.25,51.71c1.95,1.26,6.66.9,6.84-1.71s.1-3.41.79-11.39c.35-4,1-6.53-.33-8.19-.48-.62-1-.84-1.53-1.48-.32-.4-.32-.58-.55-.85a2.62,2.62,0,0,0-2.12-.84l-4,4.18C137.75,41.6,138.15,49.71,141.25,51.71Z"/><path class="cls-1" d="M122.06,27.25c0,3.1,0,12,1.38,18.77.37,1.83,1.1,4.15,3,5.36a5,5,0,0,0,3.34.43c4.39-.53,6.83-2.11,7.32-5.79.65-4.9,0-7.33-.49-15.24-.15-2.44-.09-2.89-.56-3.53C133.7,24,125.58,26.17,122.06,27.25Z"/><path class="cls-1" d="M84.89,31.27c2.17,13.51,1.31,17.53,0,18.52-.75.58-1.81.28-5.12,1.53-1.59.6-1.69.8-2.1.69-3-.76-6.57-13.63-3.81-19.17,2.56-5.15,10.77-4.3,10.77-4.3h0C84.72,29.45,84.8,30.36,84.89,31.27Z"/><path class="cls-1" d="M70.1,30.64s.59,17.13-1.87,20-3.64,3.29-5.6,3.22-6.26-.7-6.89-5.12.13-15.15-.2-17.11a14.93,14.93,0,0,1,.15-4.4L69,28.65Z"/><path class="cls-1" d="M23.8,45.69S22.46,48,21,47.43s-4.21-.84-3.87-3.16a22.24,22.24,0,0,1,3.08-7.78c.74-1.21.83-2.14,1.75-3a5.91,5.91,0,0,1,2.12-1.23L25.38,32l2,3.64A14.75,14.75,0,0,1,23.8,45.69Z"/><path class="cls-1" d="M35.1,36.29S35.86,48.17,31.93,49s-7.31-.74-7.26-2.2c0-1.23.11-2,.17-3.36.13-2.68.22-4.94.18-6.89-.06-3.28-.31-3.38,0-4.29a13.49,13.49,0,0,1,3-4.17,6.61,6.61,0,0,0,.68-.7,20,20,0,0,0,1.57-2.88l4.25,4.06Q34.85,32.44,35.1,36.29Z"/><path class="cls-1" d="M53.8,25.32s-.58,16.81-2.67,20.94S49,52.5,44.58,51.82s-6.76-2.34-7.12-6-1-13.18,1-15.22,4.61-6.15,4.67-7.73S53.8,25.32,53.8,25.32Z"/><path class="cls-1" d="M9.24,33s-2.53-2.53-5-2.12a3.42,3.42,0,0,0-2,.81,4.67,4.67,0,0,0-1.09,3C.5,39.88.8,41.85.92,42.5c.34,2,.74,2.35.89,2.47.51.42,2,.07,4.88.17,2,.07,1.57-2.88,1.6-3.85S10.36,34,9.24,33Z"/><path class="cls-1" d="M18.46,37.27s1.64-3.18-.84-3.72-3.81-.35-4.94-1.1S11,30.09,9.79,33.82,5.62,42.9,7.47,44.31a9.31,9.31,0,0,0,6,2.32c2.58.07,3.09-.32,3.09-.32S17.65,38.63,18.46,37.27Z"/><path class="cls-1" d="M117.26,10.29a3.83,3.83,0,0,1,1.29-1A8.18,8.18,0,0,1,120,8.83a11.4,11.4,0,0,0,2-1,5.65,5.65,0,0,1,3.91-.49A5,5,0,0,1,128.17,9a4.39,4.39,0,0,1,1.14,2,30.2,30.2,0,0,1,.54,6.17c0,1.36.05,2.72.07,4.08,0,.16-.1.54-.15,1.07a18.88,18.88,0,0,0,0,2.14c-.07,1.16-1.06,1.94-2.93,3.42a9.79,9.79,0,0,1-2.94,1.67,6.18,6.18,0,0,1-.74.22,11.79,11.79,0,0,1-5.3-.49.88.88,0,0,1-.53-.36,1.09,1.09,0,0,1-.1-.48c-.41-5.32-.68-10.66-.62-16A3.38,3.38,0,0,1,117.26,10.29Z"/><path class="cls-1" d="M151.45,14.24a5.2,5.2,0,0,0-2.45.49c-1.38.64-1.53,1.75-1.68,3.05-.38,3.52-1.18,7-.83,10.58a9,9,0,0,0,.75,3,5.36,5.36,0,0,0,2.1,2.38,2.91,2.91,0,0,0,2.22.38A2.88,2.88,0,0,0,153,33a8.89,8.89,0,0,0,1.27-3.24,33.66,33.66,0,0,0,.71-6c.09-1.81.1-3.61,0-5.42a5.87,5.87,0,0,0-.31-2A3.5,3.5,0,0,0,151.45,14.24Z"/><path class="cls-1" d="M156,18.11a10.9,10.9,0,0,1,2.52-4.4c1.5-1.46,3,1,3,2.93s1,13.19-1,14.66-4.53,1.46-5,0S155.48,20.06,156,18.11Z"/><path class="cls-1" d="M163.06,16.67a.85.85,0,0,1,.27-.18A9.85,9.85,0,0,0,166.28,14c.63-.82,2.15-1.47,2.78-.25.51,1,0,13.68-1,15.63s-2.52,2.45-4,2c-1.07-.35-1.35-2.12-1.5-3a28.62,28.62,0,0,1,0-7.68c.13-1.19.3-2.39.45-3.58a.79.79,0,0,1,.08-.3Z"/><path class="cls-1" d="M170.57,15.18c.81-1.58,1.51-2.93,3-2.93s2.52,0,2.52,6.35.5,7.81-1,8.3-3,1.47-4.53.49S169.57,17.13,170.57,15.18Z"/><path class="cls-1" d="M133.82,19.09a6.49,6.49,0,0,1,.39-2.55,42.1,42.1,0,0,1,1.75-4c.24-.47.47-1,.75-1.43a14.1,14.1,0,0,1,1.06-1.28C139.17,8,140.34,6,142.24,4.7a10.22,10.22,0,0,1,3.62-1.46c1.49-.32,3.28-.32,4.27.84A4.74,4.74,0,0,1,151,7a151.09,151.09,0,0,1-.41,16.75,17.14,17.14,0,0,1-1.2,6.38c-.94,2-2.88,3.63-5.06,3.57A6.93,6.93,0,0,1,140.42,32a16.94,16.94,0,0,1-5.06-6.44,18.4,18.4,0,0,1-1.42-5A14.33,14.33,0,0,1,133.82,19.09Z"/><path class="cls-1" d="M58.46,10.29a3.64,3.64,0,0,0-1.22-1,7.2,7.2,0,0,0-1.37-.49,10.43,10.43,0,0,1-1.84-1,5.05,5.05,0,0,0-3.68-.49A4.73,4.73,0,0,0,48.2,9a4.47,4.47,0,0,0-1.08,2,32.46,32.46,0,0,0-.51,6.17l-.06,4.08c0,.16.09.54.14,1.07.12,1.51-.17,2.33.71,3.62a10.08,10.08,0,0,0,4.16,3.29,7.56,7.56,0,0,0,6.23,0,1.43,1.43,0,0,0,.51-.36c1.09-1.36.53-6.08.6-7.75.12-2.9.18-5.79.16-8.69A3.58,3.58,0,0,0,58.46,10.29Z"/><path class="cls-1" d="M46.65,19.09a6.49,6.49,0,0,0-.39-2.55,42.1,42.1,0,0,0-1.75-4c-.24-.47-.47-1-.75-1.43A14.1,14.1,0,0,0,42.7,9.81C41.3,8,40.13,6,38.23,4.7a10.22,10.22,0,0,0-3.62-1.46c-1.49-.32-3.28-.32-4.27.84A4.74,4.74,0,0,0,29.52,7a151.09,151.09,0,0,0,.41,16.75,17.14,17.14,0,0,0,1.2,6.38c.94,2,2.88,3.63,5.06,3.57A6.93,6.93,0,0,0,40.05,32a16.94,16.94,0,0,0,5.06-6.44,18.4,18.4,0,0,0,1.42-5A14.33,14.33,0,0,0,46.65,19.09Z"/><path class="cls-1" d="M24.49,18.11A10.9,10.9,0,0,0,22,13.71c-1.51-1.46-3,1-3,2.93S18,29.83,20,31.3s4.53,1.46,5,0S25,20.06,24.49,18.11Z"/><path class="cls-1" d="M17.41,16.67a.85.85,0,0,0-.27-.18,9.73,9.73,0,0,1-3-2.53c-.63-.82-2.15-1.47-2.78-.25-.51,1,0,13.68,1,15.63s2.52,2.45,4,2c1.07-.35,1.35-2.12,1.5-3a28.62,28.62,0,0,0,0-7.68c-.13-1.19-.3-2.39-.45-3.58a.79.79,0,0,0-.08-.3A.1.1,0,0,1,17.41,16.67Z"/><path class="cls-1" d="M9.9,15.18c-.81-1.58-1.51-2.93-3-2.93s-2.52,0-2.52,6.35-.5,7.81,1,8.3,3,1.47,4.53.49S10.9,17.13,9.9,15.18Z"/><path class="cls-1" d="M75.72,32.75l1.86-.13a28.29,28.29,0,0,0,7.93-1.47,5.82,5.82,0,0,0,3.61-3.1,5.28,5.28,0,0,0,.23-2.35,106.32,106.32,0,0,0-4-17.65c-.81-2.47-1.12-3.28-1.93-4.21C80.93,1,77,.82,75.71.76c-2.68-.12-4.55.61-8,2-3,1.2-4,2.05-4.43,2.6a11.76,11.76,0,0,0-2,4.59A34.07,34.07,0,0,0,61,23.24a27.06,27.06,0,0,0,1.73,6.43,4.93,4.93,0,0,0,1.42,2.06,5.5,5.5,0,0,0,2.55.86A43.74,43.74,0,0,0,75.72,32.75Z"/><path class="cls-1" d="M107.11,1.11a20,20,0,0,1,5.67.22,6,6,0,0,1,3.33,1.73,7.13,7.13,0,0,1,1.42,2.86c1.71,5.82,1.1,12,.69,18a18.64,18.64,0,0,1-.63,4.34A6.05,6.05,0,0,1,115,31.77a7.81,7.81,0,0,1-3.38.87,43.69,43.69,0,0,1-8.23-.48c-2.77-.34-5.53-.69-8.27-1.2a4.43,4.43,0,0,1-2-.76,3.78,3.78,0,0,1-1.09-2,25.1,25.1,0,0,1-.57-8.86,81.19,81.19,0,0,1,1-8.36,12.76,12.76,0,0,1,1.28-4.15A9.63,9.63,0,0,1,98.64,3,33,33,0,0,1,107.11,1.11Z"/></svg>