<svg id="Layer_1" data-name="Layer 1" xmlns="http://www.w3.org/2000/svg" xmlns:xlink="http://www.w3.org/1999/xlink" viewBox="0 0 192.16 155.8"><defs><style>.cls-1{fill:none;}.cls-2{clip-path:url(#clip-path);}.cls-3{clip-path:url(#clip-path-2);}.cls-4{fill:#646469;}</style><clipPath id="clip-path"><path class="cls-1" d="M182.76,76a2.58,2.58,0,0,1-2.6-2.56v0A2.6,2.6,0,1,1,182.8,76ZM166,72.6c3.8,0,5.8-3.2,5.8-6.7,0-3.8-2.3-6.6-5.9-6.6-3.4,0-5.8,2.6-5.8,6.7S162.66,72.6,166,72.6Zm6.3,3-.4-2.9a8.27,8.27,0,0,1-6.7,3.3c-4.9,0-9-3.8-9-9.9,0-5.8,3.6-10.1,9-10.1a7.47,7.47,0,0,1,6.3,2.9h0V47.7l3.8-.7V75.6ZM138.8,64.3h11c-.2-2.8-2-5.2-5.3-5.2a5.74,5.74,0,0,0-5.74,5.2Zm13.4,8.9a11.3,11.3,0,0,1-7.5,2.7c-5.4,0-9.8-3.5-9.8-9.9,0-6.2,4.2-10.1,9.5-10.1,5.5,0,9,4.2,9,9.6a7.14,7.14,0,0,1-.1,1.6H138.7a5.8,5.8,0,0,0,6,5.61h.22a9.23,9.23,0,0,0,5.6-1.9Zm-30.4,2.4V56.3h3.1l.4,3h0a5.33,5.33,0,0,1,5.3-3.4,11.33,11.33,0,0,1,2.6.3l-.6,3.5a7.84,7.84,0,0,0-2.2-.3c-4,0-4.9,3.4-4.9,7.4v8.7h-3.7ZM103.1,64.3h11c-.2-2.8-2-5.2-5.3-5.2a5.91,5.91,0,0,0-5.74,5.2Zm13.5,8.9a11.3,11.3,0,0,1-7.5,2.7c-5.4,0-9.8-3.5-9.8-9.9,0-6.2,4.2-10.1,9.5-10.1,5.5,0,9,4.2,9,9.6a7.14,7.14,0,0,1-.1,1.6H103a5.8,5.8,0,0,0,6,5.61h.22a9.23,9.23,0,0,0,5.6-1.9ZM82.26,56.3l5.3,15.2,5.6-15.2h3.9l-7.7,19.2h-3.8l-7.4-19.2ZM71,75.6V56.3h3.8V75.5H71Zm1.8-23.1A2.5,2.5,0,1,1,75.3,50a2.5,2.5,0,0,1-2.5,2.5h0Zm-11.3,19V47.7l3.8-.7V70.2c0,1.5.3,2.2,1.3,2.8l-.5,3a4.31,4.31,0,0,1-4.63-4,3,3,0,0,1,0-.52ZM42.9,64.3h11c-.2-2.8-2-5.2-5.3-5.2a5.74,5.74,0,0,0-5.74,5.2Zm13.4,8.9a11.3,11.3,0,0,1-7.5,2.7c-5.4,0-9.8-3.5-9.8-9.9,0-6.2,4.2-10.1,9.5-10.1,5.5,0,9,4.2,9,9.6a7.14,7.14,0,0,1-.1,1.6H42.76a5.79,5.79,0,0,0,6,5.61H49a9.23,9.23,0,0,0,5.6-1.9Zm-31-.6c3.8,0,5.8-3.2,5.8-6.7,0-3.8-2.3-6.6-5.9-6.6-3.4,0-5.8,2.6-5.8,6.7s2.6,6.6,5.86,6.6Zm6.3,3-.4-2.9A8.27,8.27,0,0,1,24.5,76c-4.9,0-9-3.8-9-9.9,0-5.8,3.6-10.1,9-10.1a7.47,7.47,0,0,1,6.3,2.9h0V47.7l3.8-.7V75.6ZM174.2,28.3a8.59,8.59,0,0,0,5.3,1.9c1.8,0,3.9-.6,3.9-2.5,0-4.2-10.3-1.6-10.3-8.6,0-3.9,3.1-5.8,7-5.8a10.94,10.94,0,0,1,6.4,2L185,17.8a8.62,8.62,0,0,0-4.7-1.4c-1.7,0-3.5.6-3.5,2.4,0,4.1,10.3,1.7,10.3,8.7,0,4-3.4,5.8-7.5,5.8a11.67,11.67,0,0,1-7.3-2.6Zm-17.3,0a8.59,8.59,0,0,0,5.3,1.9c1.8,0,3.9-.6,3.9-2.5,0-4.2-10.3-1.6-10.3-8.6,0-3.9,3.1-5.8,7-5.8a10.94,10.94,0,0,1,6.4,2l-1.5,2.6a8.62,8.62,0,0,0-4.7-1.4c-1.7,0-3.5.6-3.5,2.4,0,4.1,10.3,1.7,10.3,8.7,0,4-3.4,5.8-7.5,5.8a11.67,11.67,0,0,1-7.3-2.6ZM138,21.8h11c-.2-2.8-2-5.2-5.3-5.2A5.6,5.6,0,0,0,138,21.8Zm13.4,8.9a11.3,11.3,0,0,1-7.5,2.7c-5.4,0-9.8-3.5-9.8-9.9,0-6.2,4.2-10.1,9.5-10.1,5.5,0,9,4.2,9,9.6a7.14,7.14,0,0,1-.1,1.6H137.8a5.8,5.8,0,0,0,6,5.61H144a9.23,9.23,0,0,0,5.6-1.9ZM130.06,33h-3.8V21.5c0-2.9-1.6-4.7-4.5-4.7-3.2,0-5.2,2.3-5.2,5.5V33h-3.8V13.8h3.1l.4,2.8a7.89,7.89,0,0,1,6.6-3.2c4.7,0,7.2,3.2,7.2,8Zm-26.4,0V13.8h3.8V33Zm1.8-23.1a2.5,2.5,0,1,1,.08,0Zm-9.9,13.5c0-4.2-2.6-6.7-5.9-6.7-3.8,0-5.8,3.2-5.8,6.7,0,3.8,2.3,6.6,5.9,6.6C93.06,30.1,95.56,27.5,95.56,23.4Zm-12.3-9.6.4,2.9a8.27,8.27,0,0,1,6.7-3.3c4.9,0,9,3.8,9,9.9,0,5.8-3.6,10.1-9,10.1a7.47,7.47,0,0,1-6.3-2.9h0V40.7l-3.8.7V13.8Zm-11.2,9.6c0-4.2-2.6-6.7-5.9-6.7-3.8,0-5.8,3.2-5.8,6.7,0,3.8,2.3,6.6,5.9,6.6C69.66,30.1,72.06,27.5,72.06,23.4Zm-12.2-9.6.4,2.9A8.29,8.29,0,0,1,67,13.4c4.9,0,9,3.8,9,9.9,0,5.8-3.6,10.1-9,10.1a7.47,7.47,0,0,1-6.3-2.9h0V40.7l-3.8.7V13.8ZM47.46,24.7a26,26,0,0,0-4.4-.5c-3.6,0-5.1,1.2-5.1,3.2s1.8,3,3.6,3c2.6,0,5.8-1.8,5.8-4.3V24.7Zm4.9,5.9L52,33.4c-2.1,0-4.3-.9-4.3-3h0a7.54,7.54,0,0,1-6.5,3c-3.8,0-6.9-2-6.9-5.8s2.9-6.3,8.4-6.3a21.82,21.82,0,0,1,4.7.5V20.6c0-3-2-4.1-4.8-4.1A12.12,12.12,0,0,0,36.9,18l-1.2-2.6a12.74,12.74,0,0,1,7.4-2c5.1,0,7.9,2.2,7.9,6.6v7.9C51.16,29.4,51.36,30.1,52.36,30.6ZM8.26,33V5.7h3.9V17.6h13.6V5.7h3.9V33.1h-3.9V20.9H12.06V33Z"/></clipPath><clipPath id="clip-path-2"><rect class="cls-1" x="-93.74" y="-5270.7" width="1440" height="5516"/></clipPath></defs><title>footer-brand</title><g class="cls-2"><g class="cls-3"><rect class="cls-4" x="3.26" width="188.9" height="81"/></g></g><path class="cls-4" d="M101.93,104.34a23.8,23.8,0,1,0,21.34,26.25A24,24,0,0,0,101.93,104.34Zm10.31,28.07c-1.54,5.21-6.86,8.85-12.93,8.85s-11.4-3.64-12.94-8.85a.78.78,0,0,1,.45-.93.86.86,0,0,1,1,.38,13.16,13.16,0,0,0,11.47,6.27,12.78,12.78,0,0,0,11.46-6.27.82.82,0,0,1,1-.38.77.77,0,0,1,.46.93Z"/></svg>